<?xml version="1.0" encoding="UTF-8" standalone="no"?>
<svg
   xmlns:dc="http://purl.org/dc/elements/1.1/"
   xmlns:cc="http://creativecommons.org/ns#"
   xmlns:rdf="http://www.w3.org/1999/02/22-rdf-syntax-ns#"
   xmlns:svg="http://www.w3.org/2000/svg"
   xmlns="http://www.w3.org/2000/svg"
   viewBox="0 0 312.64001 167.66667"
   height="167.66667"
   width="312.64001"
   xml:space="preserve"
   id="svg2"
   version="1.1"><metadata
     id="metadata8"><rdf:RDF><cc:Work
         rdf:about=""><dc:format>image/svg+xml</dc:format><dc:type
           rdf:resource="http://purl.org/dc/dcmitype/StillImage" /></cc:Work></rdf:RDF></metadata><defs
     id="defs6" /><g
     transform="matrix(1.3333333,0,0,-1.3333333,0,167.66667)"
     id="g10"><g
       transform="scale(0.1)"
       id="g12"><path
         id="path14"
         style="fill:#b174ae;fill-opacity:1;fill-rule:nonzero;stroke:none"
         d="m 902.754,366.156 c -52.649,0 -95.324,57.989 -95.324,129.524 0,71.535 42.675,129.527 95.324,129.527 52.641,0 95.32,-57.992 95.32,-129.527 0,-71.535 -42.679,-129.524 -95.32,-129.524 z m 1.117,610.617 c -258.574,0 -468.195,-217.148 -468.195,-485.019 0,-267.863 209.621,-485.01572 468.195,-485.01572 258.579,0 468.199,217.15272 468.199,485.01572 0,267.871 -209.62,485.019 -468.199,485.019" /><path
         id="path16"
         style="fill:#b174ae;fill-opacity:1;fill-rule:nonzero;stroke:none"
         d="m 1833.54,676.23 c -52.15,0 -84.74,46.543 -84.11,95.321 0.56,43.176 30.84,94.762 80.75,98.125 56.08,3.781 89.71,-44.856 89.71,-99.805 0,-54.949 -34.2,-93.641 -86.35,-93.641 z m 508.01,85.79 c -25.8,250.64 -214.2,460.91 -492.87,456.98 -310.77,-4.37 -470.44,-210.27 -470.44,-441.281 0,-241.106 190.08,-421.098 464.27,-385.77 13.99,1.801 34.2,8.41 46.54,14.578 3.63,1.813 -2.8,-65.043 -99.25,-110.461 -30.4,-14.32 -128.4,-28.039 -135.13,-143.546 -2.87,-49.258 30.04,-111.8403 97,-137.3716 132.33,-50.4687 282.83,39.0235 320.73,66.7227 154.2,112.7109 226.14,274.4649 255.69,432.8709 14.02,75.137 21.3,171.074 13.46,247.278" /><path
         id="path18"
         style="fill:#b174ae;fill-opacity:1;fill-rule:nonzero;stroke:none"
         d="m 521.855,1111.3 c 0,-80.72 -64.125,-146.152 -143.226,-146.152 -79.102,0 -143.227,65.432 -143.227,146.152 0,80.72 64.125,146.15 143.227,146.15 79.101,0 143.226,-65.43 143.226,-146.15" /><path
         id="path20"
         style="fill:#b174ae;fill-opacity:1;fill-rule:nonzero;stroke:none"
         d="M 173.82,964.902 C 106.535,964.902 0,913.316 0,791.082 0,668.844 0,213.539 0,188.871 0,164.199 16.8203,22.3398 166.531,22.3398 c 130.649,0 192.328,110.4612 192.328,173.2622 0,69.527 1.68,512.492 1.68,576.414 0,93.078 -52.144,192.886 -186.719,192.886" /></g></g></svg>